<?xml version="1.0" encoding="UTF-8"?>
<svg width="700pt" height="700pt" version="1.1" viewBox="200 110 300 350" xmlns="http://www.w3.org/2000/svg" xmlns:xlink="http://www.w3.org/1999/xlink">
    <g>
        <path fill="#61dafb" d="m484.4 304.46v-46.863c0-74.105-60.297-134.4-134.4-134.4-74.105-0.003906-134.4 60.293-134.4 134.4v46.867c-13.008 4.6367-22.398 16.957-22.398 31.535v44.801c0 18.531 15.07 33.602 33.602 33.602h13.266c4.6367 13.008 16.953 22.398 31.535 22.398h22.398c12.355 0 22.398-10.047 22.398-22.398l-0.003906-112.01c0-12.355-10.047-22.398-22.398-22.398h-22.398c-14.582 0-26.898 9.3906-31.535 22.398h-2.0664v-44.801c0-61.758 50.242-112 112-112s112 50.242 112 112v44.801h-2.0664c-4.6367-13.008-16.957-22.398-31.535-22.398h-22.398c-12.355 0-22.398 10.047-22.398 22.398v112c0 12.355 10.047 22.398 22.398 22.398h22.398c14.582 0 26.898-9.3906 31.535-22.398h13.266c18.531 0 33.602-15.07 33.602-33.602v-44.801c0-14.578-9.3906-26.895-22.402-31.531zm-268.8 76.336v-44.801c0-6.1758 5.0234-11.199 11.199-11.199h11.199v67.199h-11.199c-6.1758 0-11.199-5.0234-11.199-11.199zm44.797-67.199c0-6.1758 5.0234-11.199 11.199-11.199h22.398l0.015625 112-22.41-0.003906c-6.1758 0-11.199-5.0234-11.199-11.199zm179.2 89.598c0 6.1758-5.0234 11.199-11.199 11.199h-22.398l-0.003906-112h22.398c6.1758 0 11.199 5.0234 11.199 11.199zm44.797-22.398c0 6.1758-5.0234 11.199-11.199 11.199h-11.199v-67.199h11.199c6.1758 0 11.199 5.0234 11.199 11.199z"/>
    </g>
</svg>
