<?xml version="1.0" encoding="UTF-8"?>
<svg width="700pt" height="700pt" version="1.1" viewBox="70 30 570 500" xmlns="http://www.w3.org/2000/svg" xmlns:xlink="http://www.w3.org/1999/xlink">
    <g>
        <path  fill="#61dafb" d="m210 16.801c-36.938 0-67.199 30.262-67.199 67.199v392c0 36.938 30.262 67.199 67.199 67.199h330.4c4.457 0 8.7305-1.7695 11.879-4.9219 3.1523-3.1484 4.9219-7.4219 4.9219-11.879v-492.8c0-4.457-1.7695-8.7305-4.9219-11.879-3.1484-3.1523-7.4219-4.9219-11.879-4.9219zm0 33.598h16.801v358.4h-16.801c-12.41 0-23.586 4.2266-33.602 10.148v-334.95c0-18.906 14.695-33.602 33.602-33.602zm50.398 0h263.2v358.4h-263.2zm-50.398 392h313.6v16.801h-313.6c-0.58203-0.03125-1.168-0.03125-1.75 0-4.457 0.23047-8.6367 2.2227-11.625 5.5391-2.9883 3.3164-4.5352 7.6797-4.3047 12.137 0.23438 4.457 2.2266 8.6367 5.543 11.625 3.3164 2.9844 7.6797 4.5312 12.137 4.3008h313.6v16.801h-313.6c-18.906 0-33.602-14.695-33.602-33.602v-2.625c0.074218-0.40625 0.13281-0.81641 0.17578-1.2266 1.8711-16.906 15.816-29.75 33.426-29.75z"/>
    </g>
</svg>
