<?xml version="1.0" standalone="no"?>
<!DOCTYPE svg PUBLIC "-//W3C//DTD SVG 20010904//EN"
 "http://www.w3.org/TR/2001/REC-SVG-20010904/DTD/svg10.dtd">
<svg version="1.0" xmlns="http://www.w3.org/2000/svg"
 width="512.000000pt" height="512.000000pt" viewBox="0 0 512.000000 512.000000"
 preserveAspectRatio="xMidYMid meet">
<metadata>
Created by potrace 1.14, written by Peter Selinger 2001-2017
</metadata>
<g transform="translate(0.000000,512.000000) scale(0.100000,-0.100000)"
fill="#000000" stroke="none">
<path d="M3350 4106 c0 -5 -3 -6 -6 -3 -4 4 -15 -3 -25 -14 -10 -12 -23 -18
-30 -13 -8 4 -9 3 -5 -4 4 -7 2 -12 -4 -12 -6 0 -8 -4 -5 -10 3 -5 -1 -10 -10
-10 -9 0 -13 -4 -10 -10 3 -5 1 -10 -5 -10 -7 0 -21 -11 -32 -25 -11 -14 -24
-23 -29 -19 -5 3 -9 2 -8 -3 3 -20 -2 -34 -11 -28 -5 3 -10 -1 -10 -10 0 -9
-3 -14 -7 -12 -10 5 -43 -30 -35 -37 5 -6 -14 -10 -31 -7 -5 1 -6 -3 -2 -8 3
-6 -4 -15 -15 -21 -11 -6 -18 -15 -15 -21 4 -5 -1 -9 -9 -9 -8 0 -17 -9 -21
-19 -4 -12 -12 -18 -21 -14 -7 3 -14 0 -14 -6 0 -15 -45 -61 -60 -61 -5 0 -10
-5 -10 -11 0 -5 5 -7 12 -3 7 5 8 3 4 -5 -5 -7 -10 -10 -13 -7 -3 2 -34 -24
-69 -60 -35 -35 -69 -64 -75 -64 -5 0 -8 -3 -6 -7 6 -10 -19 -34 -27 -26 -3 4
-6 1 -6 -6 0 -7 -5 -9 -10 -6 -6 4 -8 11 -5 16 4 5 -1 9 -10 9 -11 0 -15 5
-11 15 3 8 2 14 -2 13 -14 -4 -52 23 -52 38 0 8 -3 13 -7 11 -11 -6 -43 30
-35 39 4 4 0 5 -10 1 -11 -4 -18 1 -22 19 -4 13 -11 24 -18 24 -6 0 -16 7 -23
16 -13 19 -105 28 -105 11 0 -6 -3 -8 -6 -4 -4 3 -44 -32 -90 -78 -45 -47 -88
-85 -94 -85 -6 0 -9 -4 -5 -9 3 -5 -4 -12 -15 -16 -11 -3 -19 -12 -17 -18 1
-7 -4 -11 -10 -10 -7 2 -13 -1 -13 -5 0 -15 -37 -52 -44 -45 -3 3 -6 1 -6 -5
0 -13 -60 -77 -60 -65 -1 4 -6 -2 -13 -14 -7 -12 -16 -23 -22 -25 -5 -2 -9 -6
-7 -11 1 -4 -9 -12 -23 -17 -14 -5 -25 -12 -25 -15 0 -4 5 -3 12 1 7 4 8 3 4
-4 -4 -7 -14 -12 -22 -12 -8 0 -13 -6 -11 -12 1 -7 -4 -12 -10 -11 -7 2 -13
-4 -13 -12 0 -8 -12 -21 -27 -29 -16 -8 -24 -15 -20 -16 5 0 -5 -11 -21 -25
-17 -14 -36 -24 -44 -23 -17 4 -38 24 -38 37 0 6 -6 11 -13 11 -14 0 -47 35
-47 51 0 5 -4 7 -10 4 -5 -3 -10 1 -10 10 0 9 -4 14 -8 11 -5 -3 -19 6 -30 19
-12 14 -19 25 -14 26 4 0 -4 5 -17 10 -13 5 -21 15 -18 23 4 9 -2 12 -20 8
-19 -4 -24 -2 -18 8 6 9 3 10 -14 1 -16 -9 -21 -9 -21 1 0 10 -2 10 -8 1 -4
-6 -14 -13 -21 -15 -23 -5 -52 -38 -45 -50 4 -6 3 -8 -3 -5 -6 4 -16 0 -23 -8
-7 -8 -20 -15 -29 -15 -13 0 -13 -2 -2 -9 11 -7 9 -10 -7 -16 -12 -3 -29 -20
-39 -36 -10 -16 -23 -27 -30 -25 -8 3 -10 -1 -6 -12 3 -9 3 -14 -1 -10 -7 6
-17 -2 -67 -59 -9 -10 -28 -27 -42 -38 -13 -11 -23 -23 -21 -27 3 -4 -4 -9
-14 -12 -10 -3 -26 -20 -36 -37 -10 -17 -20 -28 -23 -26 -6 7 -63 -50 -63 -63
0 -6 -3 -9 -7 -7 -10 5 -103 -90 -95 -97 3 -3 1 -6 -5 -6 -15 0 -123 -106
-123 -120 0 -6 -4 -9 -9 -6 -5 3 -16 -6 -25 -19 -9 -14 -21 -23 -27 -20 -5 4
-8 1 -7 -7 2 -7 -3 -12 -10 -10 -8 1 -11 -1 -8 -6 3 -5 -4 -14 -14 -22 -10 -8
-17 -17 -14 -22 3 -4 0 -8 -5 -8 -6 0 -21 -11 -33 -25 -11 -13 -25 -22 -29
-19 -5 3 -6 -2 -3 -11 4 -9 3 -15 -2 -13 -5 2 -23 -12 -40 -29 -17 -18 -34
-29 -38 -25 -4 4 -6 3 -5 -3 5 -15 -33 -55 -45 -48 -6 3 -8 3 -4 -2 4 -4 -7
-22 -25 -39 -17 -17 -30 -35 -29 -41 2 -5 0 -7 -4 -3 -9 10 -35 -12 -28 -23 3
-5 2 -8 -3 -7 -10 4 -77 -61 -92 -90 -13 -24 -15 -102 -3 -102 13 0 53 -36 47
-42 -8 -8 29 -3 43 6 6 4 12 2 12 -3 0 -6 8 -4 18 4 9 8 21 15 25 14 5 0 17 9
26 20 10 11 21 18 25 14 3 -3 6 -1 6 6 0 11 56 71 66 71 2 0 -1 -11 -6 -24 -5
-15 -5 -27 3 -35 6 -6 7 -11 1 -11 -5 0 -2 -5 6 -10 12 -8 12 -10 -5 -10 -15
0 -17 -2 -6 -9 11 -7 11 -15 3 -40 -7 -19 -7 -33 -1 -36 5 -4 4 -15 -3 -28
-10 -20 -10 -21 5 -9 14 12 15 11 7 -19 -5 -17 -12 -34 -15 -37 -2 -3 0 -11 6
-19 9 -10 8 -17 -2 -30 -8 -9 -9 -14 -3 -10 7 4 14 -2 17 -14 4 -16 2 -19 -10
-15 -13 5 -14 4 -3 -9 10 -12 10 -18 -1 -32 -8 -9 -9 -14 -3 -10 7 4 14 -2 17
-14 4 -16 2 -19 -10 -15 -13 5 -14 4 -3 -9 10 -12 10 -18 -1 -32 -8 -9 -9 -14
-3 -10 7 4 14 -2 17 -14 4 -16 2 -19 -10 -15 -13 5 -14 4 -3 -9 10 -12 10 -18
-1 -32 -8 -9 -9 -14 -3 -10 7 4 14 -2 17 -14 4 -16 2 -19 -10 -15 -13 5 -14 4
-3 -9 10 -12 10 -18 -1 -32 -8 -9 -9 -14 -3 -10 7 4 14 -2 17 -14 4 -16 2 -19
-10 -15 -13 5 -14 4 -3 -9 10 -12 10 -18 -1 -32 -8 -9 -9 -14 -3 -10 7 4 14
-2 17 -14 4 -16 2 -19 -10 -15 -13 5 -14 4 -3 -9 10 -12 10 -18 -1 -32 -8 -9
-9 -14 -3 -10 7 4 14 -2 17 -14 4 -16 2 -19 -10 -15 -13 5 -14 4 -3 -9 10 -12
10 -18 -1 -32 -10 -11 -10 -14 -1 -9 15 9 16 -8 0 -37 -10 -19 -9 -20 4 -9 13
10 15 9 10 -13 -2 -14 -9 -25 -16 -26 -6 0 -2 -4 9 -9 11 -5 16 -9 10 -9 -5
-1 -9 -22 -8 -48 0 -26 -3 -57 -8 -69 -5 -14 -4 -26 1 -29 6 -4 6 -14 -2 -28
-9 -19 -9 -20 3 -10 12 9 14 5 14 -28 1 -21 7 -45 14 -51 11 -11 13 -10 7 2
-4 8 2 4 13 -10 11 -14 21 -21 21 -16 0 6 7 1 15 -10 15 -19 15 -19 8 1 -5 16
-4 18 8 9 8 -6 44 -10 81 -10 41 2 65 -2 61 -7 -4 -6 -1 -7 8 -1 21 12 199 12
191 -1 -4 -6 0 -6 9 1 8 6 34 10 59 9 25 -1 48 3 52 9 5 8 8 7 8 -2 0 -7 5
-10 10 -7 6 3 10 0 10 -7 0 -8 3 -9 8 -3 10 14 93 15 85 1 -5 -8 -3 -8 8 0 8
6 34 10 59 9 25 -1 48 3 52 9 5 8 8 7 8 -2 0 -7 5 -10 10 -7 6 3 10 0 10 -7 0
-8 3 -9 8 -3 9 13 93 15 85 2 -4 -6 -1 -7 8 -1 20 12 119 13 112 1 -4 -6 -1
-7 8 -2 20 13 159 13 151 0 -4 -7 -1 -7 9 1 8 5 43 9 79 9 38 -1 68 3 72 9 5
7 8 7 8 -2 0 -7 5 -10 10 -7 6 3 10 0 10 -7 0 -8 3 -9 8 -3 10 14 93 15 85 1
-5 -8 -3 -8 8 0 8 6 34 10 59 9 25 -1 48 3 52 9 5 8 8 7 8 -2 0 -7 5 -10 10
-7 6 3 10 1 10 -6 0 -8 3 -9 13 0 8 6 17 8 21 4 4 -4 11 -1 16 7 7 11 10 12
10 2 0 -7 5 -10 10 -7 6 3 10 0 10 -7 0 -8 3 -9 8 -3 10 14 93 15 85 1 -4 -6
4 -2 17 9 13 11 21 15 17 9 -3 -6 0 -11 8 -11 8 0 12 4 9 9 -3 4 0 9 5 9 6 1
15 2 20 3 5 0 13 5 18 10 5 5 2 6 -7 2 -8 -4 -5 1 6 11 20 17 41 78 23 67 -5
-3 -5 5 -1 18 4 13 7 71 7 129 l-1 107 408 -2 c224 0 408 3 408 7 0 5 5 5 11
2 5 -4 21 5 33 18 13 14 27 23 30 20 6 -6 8 2 10 42 1 11 5 25 9 32 4 6 2 15
-3 18 -8 5 -5 14 7 27 11 13 13 18 4 16 -7 -2 -16 3 -19 11 -3 9 0 11 8 6 9
-6 9 -3 1 13 -14 27 -14 35 1 26 6 -4 8 -3 5 3 -12 20 -17 84 -6 77 8 -4 7 0
0 14 -14 25 -14 43 -1 22 5 -8 10 -10 10 -4 0 7 9 14 20 17 12 3 18 1 14 -5
-4 -6 0 -7 12 -1 11 5 35 7 54 6 39 -3 46 -3 110 -3 25 0 53 0 63 0 9 0 24 0
32 0 8 0 21 0 28 0 6 0 46 0 87 0 41 0 82 0 90 0 8 -1 34 1 57 3 24 2 48 0 55
-4 6 -4 19 -4 28 1 9 5 22 5 29 0 8 -4 26 -4 41 0 16 5 32 4 38 -2 6 -6 12 -6
16 1 4 6 12 11 17 11 6 0 7 -5 3 -11 -4 -8 0 -8 15 0 11 7 21 9 21 6 0 -2 9 3
19 12 11 9 18 20 15 25 -3 5 0 7 8 6 8 -2 12 4 10 16 -2 10 1 15 6 12 6 -4 8
3 4 16 -4 16 -2 19 9 13 12 -8 12 -6 0 8 -7 9 -10 17 -6 17 4 0 1 8 -6 17 -10
11 -10 14 -1 9 7 -4 12 -1 12 9 0 10 -5 13 -12 9 -7 -4 -5 2 5 13 18 21 13 58
-7 46 -7 -4 -7 -2 1 8 10 12 10 18 0 29 -8 8 -8 11 -1 7 7 -4 15 0 18 9 3 8 2
13 -3 9 -14 -8 -11 88 2 104 9 11 9 13 1 8 -7 -4 -15 0 -18 9 -3 8 -2 12 4 9
5 -3 7 13 3 41 -4 38 -3 45 8 38 12 -7 12 -5 0 9 -7 9 -11 17 -7 17 3 0 1 11
-4 25 -6 16 -6 27 2 31 7 5 8 3 3 -6 -5 -9 -4 -11 4 -6 9 6 9 11 0 22 -6 8 -8
14 -4 14 4 0 1 8 -6 17 -10 11 -10 14 -1 9 7 -4 12 -1 12 9 0 10 -5 13 -12 9
-7 -4 -5 2 5 13 18 21 13 58 -7 46 -7 -4 -7 -2 1 8 10 12 10 18 0 29 -8 8 -8
11 -1 7 7 -4 15 0 18 9 3 8 2 13 -3 9 -14 -8 -11 88 2 104 9 11 9 13 1 8 -7
-4 -15 0 -18 9 -3 8 -2 12 4 9 12 -7 9 23 -4 44 -6 10 -5 12 2 7 7 -4 12 -1
12 9 0 10 -5 13 -12 9 -7 -4 -5 2 5 13 18 21 13 58 -7 46 -7 -4 -7 -2 1 8 10
12 10 18 0 29 -9 10 -9 11 1 6 6 -4 12 -3 12 1 0 5 -6 15 -12 22 -9 9 -9 12
-1 7 8 -4 10 6 8 39 -3 31 -1 44 6 39 6 -3 3 6 -7 22 -11 16 -13 25 -6 20 9
-5 13 -3 11 5 -3 28 1 38 16 33 8 -4 12 -10 9 -15 -5 -8 9 -13 29 -10 4 0 7
-6 7 -15 0 -9 5 -12 12 -8 8 5 9 2 5 -9 -4 -10 -2 -17 5 -17 6 0 17 -8 25 -17
10 -12 12 -13 8 -3 -4 8 1 6 9 -4 9 -11 16 -16 16 -12 0 5 6 3 14 -3 10 -8 16
-9 21 -1 3 6 10 8 15 5 4 -3 13 2 20 10 7 8 16 13 20 10 14 -8 37 30 36 58 -1
15 2 27 6 27 9 0 -1 29 -16 48 -31 37 -78 85 -72 72 4 -8 0 -6 -8 4 -9 11 -16
23 -16 28 0 4 -7 8 -16 8 -8 0 -12 5 -9 10 3 6 -1 10 -9 10 -8 0 -18 5 -22 12
-5 7 -2 9 7 4 8 -4 3 1 -11 12 -13 11 -28 18 -32 16 -4 -3 -5 3 -1 12 4 11 3
15 -5 10 -6 -3 -13 2 -17 13 -3 10 -15 21 -26 24 -12 3 -18 10 -14 16 3 6 2
11 -3 11 -14 0 -52 36 -45 44 3 3 -1 6 -11 6 -9 0 -14 5 -11 10 3 6 -1 10 -9
10 -8 0 -17 9 -21 20 -3 11 -12 19 -18 17 -7 -1 -11 4 -10 11 2 6 -2 12 -8 12
-14 0 -39 26 -39 41 0 7 -3 10 -6 6 -8 -8 -34 18 -34 34 0 7 -3 10 -6 7 -7 -8
-60 42 -57 53 2 5 -1 9 -5 9 -14 0 -57 41 -55 51 2 5 -3 8 -10 6 -6 -1 -11 4
-10 11 2 6 -1 12 -7 12 -13 0 -176 162 -172 173 1 5 -1 6 -6 3 -9 -6 -72 60
-72 75 0 4 -8 5 -17 2 -13 -5 -15 -2 -10 11 4 10 3 15 -3 11 -6 -3 -10 -1 -10
4 0 6 -7 11 -17 11 -9 0 -13 3 -10 7 4 3 -11 23 -32 44 -22 20 -37 40 -33 44
3 3 -1 3 -11 -1 -12 -4 -17 -1 -17 10 0 9 -8 16 -17 16 -9 0 -14 3 -10 6 7 8
-38 54 -53 54 -6 0 -8 5 -5 10 3 6 -2 10 -11 10 -10 0 -15 3 -11 6 9 9 -19 34
-37 34 -9 0 -16 8 -16 18 0 14 -2 15 -10 2 -5 -8 -10 -10 -10 -5 0 6 -9 11
-20 11 -11 0 -20 -5 -20 -10z m31 -245 c6 10 9 8 9 -8 0 -13 3 -22 8 -22 19 3
33 -2 27 -11 -3 -5 1 -10 10 -10 9 0 13 -4 10 -10 -3 -5 1 -10 10 -10 9 0 13
-4 10 -10 -3 -5 1 -10 9 -10 8 0 17 -8 20 -18 4 -11 17 -25 31 -32 13 -7 22
-17 19 -22 -3 -4 2 -8 11 -8 9 0 13 -4 10 -10 -3 -5 1 -10 10 -10 9 0 13 -4
10 -10 -3 -5 -1 -10 5 -10 17 0 42 -28 35 -40 -4 -6 1 -7 11 -3 12 4 15 3 10
-5 -4 -7 -1 -12 8 -12 9 0 16 -5 16 -11 0 -6 7 -17 15 -25 8 -9 15 -13 15 -9
0 4 7 0 15 -9 8 -8 15 -20 15 -26 0 -7 7 -10 15 -6 8 3 14 0 12 -7 -1 -7 3
-11 10 -10 7 2 10 -3 7 -11 -3 -9 3 -17 15 -21 12 -3 21 -13 21 -21 0 -8 3
-13 8 -11 9 6 73 -59 65 -67 -4 -3 0 -6 7 -6 15 0 70 -58 70 -74 0 -6 5 -4 10
4 8 12 10 12 10 1 0 -7 37 -50 83 -94 45 -44 76 -77 68 -72 -10 6 -12 4 -5 -6
14 -23 17 -62 3 -53 -7 4 -9 3 -6 -3 4 -6 9 -36 12 -67 3 -41 1 -55 -7 -50 -6
4 -8 3 -5 -3 3 -5 8 -31 12 -57 4 -35 2 -45 -6 -40 -8 5 -9 3 -4 -5 11 -19 14
-162 3 -155 -6 4 -5 -3 1 -14 7 -14 8 -23 1 -27 -6 -4 -7 -12 -3 -18 11 -18
12 -108 1 -101 -6 4 -5 -3 1 -14 7 -14 8 -23 1 -27 -6 -4 -7 -12 -3 -18 11
-18 12 -108 1 -101 -6 4 -5 -3 1 -14 7 -14 8 -23 1 -27 -6 -4 -7 -12 -3 -18
10 -16 11 -117 1 -123 -5 -3 -5 -11 -1 -17 12 -19 11 -147 0 -140 -6 3 -7 1
-3 -6 14 -22 13 -161 -1 -179 -12 -15 -12 -15 -6 3 6 18 5 18 -10 6 -12 -10
-21 -10 -30 -3 -8 7 -18 7 -27 2 -8 -5 -23 -7 -34 -4 -10 4 -16 2 -13 -2 3 -5
-8 -9 -23 -9 -16 -1 -26 3 -23 9 4 5 -1 7 -12 2 -11 -4 -22 -2 -27 6 -6 10 -8
8 -8 -4 0 -10 -5 -18 -11 -18 -5 0 -7 5 -3 11 4 7 0 9 -14 5 -11 -4 -23 -2
-27 4 -4 7 -12 7 -26 -1 -12 -6 -23 -8 -26 -5 -3 2 -16 1 -30 -5 -13 -5 -22
-5 -19 0 3 5 -1 12 -10 15 -8 3 -12 2 -9 -4 4 -6 -9 -9 -34 -7 -24 2 -41 -1
-42 -7 0 -8 -2 -8 -5 0 -4 10 -36 10 -82 0 -13 -3 -20 -1 -17 5 8 11 7 11 -33
-1 -30 -8 -32 -8 -20 7 11 14 11 15 -7 6 -11 -6 -32 -10 -45 -10 -20 2 -26 8
-27 29 0 16 4 28 9 28 5 0 6 6 1 13 -11 18 -12 36 -2 43 6 3 5 12 -3 21 -7 9
-11 19 -10 22 18 30 23 43 14 37 -5 -3 -9 5 -9 19 0 14 4 22 9 19 6 -4 5 3 -1
14 -13 25 -14 35 -2 27 6 -3 7 6 2 22 -8 33 -8 44 2 60 4 6 3 15 -3 18 -8 5
-8 11 0 20 8 10 8 15 0 20 -8 5 -8 10 0 20 8 10 8 15 0 20 -8 5 -8 11 1 21 9
11 9 17 0 28 -8 10 -9 16 -1 21 6 3 8 11 4 16 -11 18 -15 61 -5 55 6 -4 7 4 3
21 -4 16 -6 37 -6 48 4 51 6 59 11 47 2 -6 9 -10 14 -6 5 3 9 -2 9 -10 0 -9 6
-16 14 -16 8 0 18 -9 21 -20 3 -11 13 -20 20 -20 8 0 17 -5 21 -12 4 -7 3 -8
-4 -4 -24 15 -11 -2 14 -19 27 -18 87 -28 78 -13 -5 7 9 12 27 10 4 -1 17 12
29 29 26 32 37 89 18 89 -6 0 -9 3 -5 6 3 4 -2 14 -11 23 -12 10 -13 13 -2 7
8 -5 3 2 -12 17 -15 15 -31 27 -36 27 -5 0 -16 8 -23 18 -13 16 -13 16 6 2 19
-14 19 -14 6 3 -7 9 -20 17 -28 17 -10 0 -13 6 -9 16 4 11 2 15 -6 11 -7 -2
-19 2 -26 9 -7 8 -10 14 -7 14 4 0 0 7 -9 15 -8 8 -20 15 -26 15 -6 0 -8 5 -5
10 3 6 -2 10 -11 10 -10 0 -15 3 -11 6 8 8 -18 34 -33 34 -6 0 -9 4 -6 9 3 5
-1 12 -10 15 -8 3 -12 11 -8 17 4 7 3 9 -3 6 -14 -9 -55 32 -47 45 4 6 3 8 -4
4 -13 -8 -44 22 -37 35 4 5 -1 6 -9 3 -11 -4 -16 0 -16 11 0 10 -5 13 -12 9
-8 -5 -9 -2 -5 10 4 9 3 15 -2 12 -5 -3 -26 11 -47 32 -20 20 -41 36 -46 34
-5 -1 -7 2 -4 7 6 10 -7 26 -43 51 -11 8 -21 20 -21 28 0 7 -3 12 -7 10 -5 -2
-26 14 -48 36 -22 21 -34 35 -26 31 9 -5 12 -4 7 3 -4 7 -12 12 -17 12 -14 0
-109 96 -109 110 0 6 -4 9 -9 5 -13 -8 -34 32 -24 48 7 12 31 34 68 63 11 8
13 12 5 8 -9 -4 -7 2 5 13 11 11 23 19 26 17 3 -2 12 8 19 21 7 14 19 25 27
25 7 0 12 3 11 8 -2 4 1 7 6 7 5 0 12 10 17 23 5 12 16 22 24 22 9 0 14 3 12
8 -3 4 1 13 9 20 8 7 14 10 14 7 0 -3 8 3 18 13 11 9 17 20 15 25 -2 4 3 7 12
7 9 0 14 4 10 9 -3 5 4 12 15 16 11 3 20 10 20 14 0 14 37 51 44 44 3 -3 6 0
6 8 0 8 14 23 30 32 17 10 30 25 30 33 0 8 5 12 10 9 6 -3 10 2 11 12 0 12 2
14 6 4 5 -11 7 -11 14 0z m-901 -366 c0 5 13 -5 29 -22 16 -18 32 -29 36 -25
4 4 5 3 3 -3 -4 -13 38 -55 55 -55 8 0 7 -4 -3 -10 -12 -8 -12 -10 -1 -10 19
0 82 -66 73 -76 -4 -4 -2 -4 4 -1 13 7 45 -28 36 -39 -4 -4 -1 -4 6 0 7 4 15
1 18 -8 3 -9 13 -16 22 -16 8 0 13 -3 9 -6 -8 -8 25 -44 35 -38 7 5 12 -10 9
-29 -1 -5 2 -6 7 -3 5 3 14 -4 22 -14 8 -10 17 -17 22 -14 4 3 8 0 8 -5 0 -17
33 -51 50 -51 13 0 13 -1 0 -10 -13 -8 -12 -10 3 -10 11 0 21 -9 24 -20 3 -11
12 -20 19 -20 8 0 14 -4 14 -10 0 -5 8 -10 17 -10 9 0 14 -3 10 -6 -8 -8 18
-34 35 -34 10 0 9 -3 -2 -10 -13 -8 -12 -10 3 -10 9 0 17 -4 17 -10 0 -5 8
-10 17 -10 9 0 14 -3 10 -6 -8 -8 25 -44 35 -38 4 3 8 -5 8 -17 0 -12 3 -19 6
-16 4 4 22 -9 39 -28 18 -19 36 -31 40 -27 5 4 5 -3 2 -16 -3 -14 -1 -20 6
-15 6 4 8 -1 5 -14 -3 -11 -1 -27 3 -36 7 -11 4 -19 -8 -26 -10 -6 -12 -11 -5
-11 15 0 16 -30 1 -30 -6 0 -3 -7 5 -16 21 -20 20 -28 0 -20 -14 6 -15 4 -4
-10 11 -13 11 -19 1 -36 -7 -11 -8 -17 -3 -14 6 3 12 -1 16 -9 3 -10 -1 -15
-12 -16 -10 0 -12 -3 -4 -6 15 -6 16 -33 1 -33 -6 0 -3 -7 5 -16 21 -20 20
-28 0 -20 -14 5 -15 4 -4 -9 7 -9 10 -18 7 -22 -4 -3 -2 -14 3 -24 8 -13 6
-20 -7 -28 -12 -7 -13 -11 -5 -11 8 0 12 -6 9 -12 -2 -7 0 -21 5 -31 6 -12 5
-19 -6 -23 -14 -5 -14 -8 0 -22 15 -15 15 -16 -2 -23 -11 -4 -14 -8 -8 -8 7
-1 15 -8 18 -17 4 -12 2 -15 -9 -10 -13 5 -13 2 1 -19 15 -23 15 -25 -1 -25
-15 0 -15 -1 -1 -16 21 -20 20 -28 0 -20 -14 6 -15 4 -4 -10 11 -13 11 -19 1
-36 -7 -11 -8 -17 -2 -14 5 4 12 2 16 -3 3 -5 -3 -14 -12 -20 -12 -7 -13 -11
-5 -11 8 0 12 -6 9 -12 -2 -7 0 -21 4 -30 7 -12 4 -20 -8 -27 -10 -6 -13 -11
-6 -11 8 0 12 -22 10 -73 0 -40 2 -78 7 -85 4 -7 1 -12 -8 -12 -9 0 -16 -5
-16 -11 0 -5 4 -7 10 -4 6 4 9 -10 8 -37 -2 -24 1 -49 5 -55 5 -9 3 -13 -7
-13 -9 0 -16 -5 -16 -11 0 -5 4 -7 10 -4 6 4 9 -10 8 -37 -2 -24 1 -49 5 -55
5 -9 3 -13 -7 -13 -9 0 -16 -5 -16 -11 0 -5 5 -7 10 -4 6 3 10 -5 10 -19 0
-14 -5 -28 -12 -32 -6 -4 -8 -3 -5 3 4 7 -3 10 -18 9 -14 0 -25 -5 -25 -11 0
-5 -5 -3 -10 5 -5 8 -10 10 -10 4 0 -7 -15 -9 -45 -4 -27 4 -45 3 -45 -3 0 -5
-7 -4 -15 3 -8 7 -15 8 -15 3 0 -6 -18 -7 -45 -3 -27 4 -45 3 -45 -3 0 -5 -7
-4 -15 3 -9 8 -15 8 -15 2 0 -7 -10 -8 -30 -2 -21 6 -30 5 -30 -3 0 -7 -4 -6
-10 3 -5 8 -10 10 -10 4 0 -7 -15 -9 -45 -4 -27 4 -45 3 -45 -3 0 -5 -7 -4
-15 3 -8 7 -15 8 -15 3 0 -6 -18 -7 -45 -3 -27 4 -45 3 -45 -3 0 -5 -7 -4 -15
3 -8 7 -15 8 -15 3 0 -5 -14 -8 -30 -5 -33 5 -39 18 -38 89 0 29 4 41 12 36 8
-5 8 -3 0 8 -13 16 -14 572 -1 585 6 7 11 -10 8 -29 -1 -5 3 -6 8 -3 5 4 30
-14 55 -39 26 -25 51 -45 56 -45 6 0 10 -5 10 -12 0 -9 3 -9 12 0 7 7 17 12
22 12 6 0 4 -5 -4 -10 -9 -6 -10 -10 -3 -10 6 0 15 5 18 10 4 6 10 8 14 5 14
-8 59 39 56 57 -2 10 2 16 7 15 6 -1 11 8 13 21 1 12 -2 22 -7 22 -4 0 -8 7
-8 15 0 8 -4 15 -10 15 -5 0 -9 3 -8 8 4 10 -50 62 -64 62 -6 0 -9 3 -6 6 9 9
-40 56 -51 50 -6 -4 -8 2 -6 14 2 13 -1 20 -11 20 -9 0 -22 7 -30 15 -9 8 -13
15 -9 15 4 0 -15 20 -41 45 -25 25 -50 45 -55 45 -5 0 -9 6 -9 14 0 8 -9 18
-21 21 -11 4 -18 9 -15 12 6 6 -33 46 -74 76 -14 10 -18 15 -10 11 13 -7 13
-5 1 9 -7 9 -19 17 -27 17 -7 0 -16 9 -19 20 -3 11 -12 20 -20 20 -8 0 -17 9
-20 20 -3 11 -14 20 -22 20 -9 0 -14 3 -11 6 6 5 -38 54 -48 54 -9 0 -34 28
-34 38 0 5 -8 16 -17 23 -14 12 -16 12 -8 0 5 -10 4 -12 -3 -7 -7 4 -12 14
-12 22 0 8 -4 12 -10 9 -5 -3 -10 -1 -10 5 0 15 -26 41 -34 33 -3 -4 -6 1 -6
11 0 9 -4 15 -8 12 -5 -3 -15 6 -22 19 -7 14 -22 27 -33 31 -16 5 -17 8 -6 15
11 7 10 9 -3 9 -10 0 -18 5 -18 10 0 6 4 10 9 10 5 0 13 9 16 21 4 11 9 18 12
15 7 -7 43 33 43 47 0 6 3 8 6 4 8 -8 62 42 70 65 3 10 9 16 14 13 5 -3 15 6
22 19 7 14 18 26 23 26 6 1 9 6 8 11 -3 8 12 13 30 10 5 -1 6 3 2 9 -3 5 -1
10 5 10 6 0 8 5 5 10 -6 10 9 15 30 10 5 -1 7 1 3 5 -9 10 15 34 26 27 5 -3 7
2 3 11 -6 16 3 22 26 18 5 -1 6 3 2 8 -3 6 4 15 15 21 11 6 18 15 15 21 -6 8
9 13 29 10 5 -1 6 5 3 13 -4 9 -1 18 5 22 7 4 8 3 4 -4 -4 -7 -2 -12 3 -12 6
0 11 9 11 21 0 11 4 18 9 14 6 -3 15 4 22 16 9 17 13 19 20 8 5 -8 9 -10 9 -4z
m-890 -372 c0 -7 5 -13 11 -13 5 0 7 -4 4 -10 -3 -6 1 -7 9 -4 11 4 16 0 16
-10 0 -9 8 -16 17 -16 9 0 14 -3 10 -6 -7 -7 38 -54 53 -54 5 0 9 -3 8 -7 -2
-5 1 -8 6 -8 5 0 12 -10 17 -22 5 -13 16 -23 25 -23 10 0 14 -5 10 -15 -3 -8
0 -14 7 -12 7 1 11 -4 10 -10 -2 -7 0 -12 5 -12 20 3 32 -2 32 -15 0 -8 9 -18
21 -21 13 -4 18 -12 15 -21 -3 -8 -2 -13 2 -10 5 3 15 -3 24 -12 8 -9 25 -25
37 -35 12 -10 19 -23 15 -29 -4 -7 -3 -8 5 -4 6 4 14 0 17 -8 3 -9 10 -13 15
-10 5 3 9 0 9 -7 0 -16 40 -50 51 -43 5 3 9 -3 9 -14 0 -10 10 -27 23 -38 22
-19 22 -19 7 2 -8 11 -2 7 13 -8 15 -16 25 -34 21 -40 -4 -6 -3 -8 4 -4 6 3
17 -3 25 -14 7 -11 17 -17 20 -13 4 3 7 -2 7 -12 0 -10 2 -16 5 -13 7 6 95
-81 95 -94 0 -4 5 -8 11 -8 6 0 17 -7 25 -15 9 -8 12 -15 8 -15 -4 0 1 -7 12
-15 13 -10 14 -13 3 -10 -17 6 -20 -19 -5 -43 4 -7 2 -12 -6 -13 -10 0 -11 -2
0 -6 9 -4 10 -8 2 -18 -8 -10 -8 -15 1 -20 8 -6 7 -10 -2 -16 -11 -7 -11 -9
-1 -9 7 0 10 -5 7 -11 -11 -17 -12 -69 -2 -69 5 0 4 -6 -2 -13 -6 -8 -7 -17
-3 -21 10 -11 9 -30 -3 -38 -6 -5 -5 -8 3 -8 7 0 10 -5 7 -11 -11 -17 -12 -69
-2 -69 5 0 4 -6 -2 -13 -6 -8 -7 -17 -3 -21 10 -11 9 -30 -3 -38 -6 -5 -5 -8
3 -8 9 0 10 -6 5 -17 -10 -22 -10 -44 0 -60 5 -8 3 -13 -5 -13 -10 0 -10 -2 1
-9 9 -6 10 -10 2 -16 -9 -5 -9 -10 0 -21 9 -11 8 -14 -2 -14 -11 0 -11 -2 0
-9 12 -8 12 -12 2 -24 -9 -11 -9 -17 0 -22 8 -6 7 -10 -2 -16 -8 -5 -9 -9 -4
-9 6 0 10 -11 10 -25 0 -14 -4 -25 -9 -25 -5 0 -3 -7 4 -15 10 -12 10 -15 -1
-15 -11 0 -11 -2 1 -10 13 -9 13 -10 0 -10 -12 0 -12 -2 -1 -9 9 -6 10 -10 2
-16 -9 -5 -9 -10 0 -21 9 -11 8 -14 -2 -14 -11 0 -11 -2 0 -9 12 -8 12 -12 2
-24 -9 -11 -9 -17 0 -22 8 -6 7 -10 -2 -16 -8 -5 -9 -9 -4 -9 6 0 10 -11 10
-25 0 -14 -4 -25 -9 -25 -5 0 -3 -7 4 -15 10 -12 10 -15 -1 -15 -11 0 -11 -2
1 -10 13 -9 13 -10 0 -10 -12 0 -12 -2 -1 -9 9 -6 10 -10 2 -16 -9 -5 -9 -10
0 -21 9 -11 8 -14 -2 -15 -10 0 -11 -2 -1 -6 6 -2 9 -9 6 -15 -10 -16 -11 -68
-1 -68 5 0 4 -6 -2 -13 -6 -8 -7 -17 -3 -21 10 -11 9 -30 -3 -38 -6 -5 -5 -8
4 -8 10 0 11 -4 3 -13 -8 -9 -170 -12 -759 -12 -411 0 -753 4 -760 8 -7 4 -10
14 -7 22 4 8 10 13 14 10 11 -7 0 36 -14 54 -9 12 -8 13 3 6 11 -6 13 -2 7 19
-5 20 -3 26 5 21 8 -6 8 -2 1 12 -6 11 -7 25 -2 33 6 10 3 21 -8 34 -9 11 -12
17 -6 13 7 -4 11 7 11 33 0 22 -5 40 -10 40 -6 0 -2 7 9 16 10 8 14 13 7 9 -9
-4 -11 4 -8 30 4 27 2 34 -7 29 -9 -5 -8 -2 1 9 8 10 11 20 8 24 -4 3 -1 13 6
21 8 10 8 13 1 9 -7 -4 -15 0 -18 9 -4 9 -2 13 5 8 7 -4 10 -1 7 7 -3 8 -1 22
3 31 6 11 4 22 -7 32 -8 9 -12 16 -7 16 5 0 9 16 10 35 0 19 -4 35 -10 35 -6
0 -2 7 9 16 10 8 14 13 7 9 -9 -4 -11 4 -8 30 4 27 2 34 -7 29 -9 -5 -8 -2 1
9 8 10 11 20 8 24 -4 3 -1 13 6 21 8 10 8 13 1 9 -7 -4 -15 0 -18 9 -3 8 -2
13 3 10 5 -3 9 6 9 19 0 14 -6 25 -12 25 -6 0 -4 4 4 10 8 5 11 12 7 16 -4 4
-1 14 6 22 8 10 8 13 1 9 -7 -4 -15 0 -18 9 -4 10 -2 13 6 8 8 -5 9 -2 5 9 -3
9 -1 19 5 23 7 5 5 12 -7 21 -11 7 -14 13 -8 13 6 0 11 11 11 25 0 14 -5 25
-11 25 -6 0 -2 7 9 16 10 8 13 12 5 8 -10 -5 -11 -1 -6 15 4 14 2 21 -7 21
-10 0 -10 2 1 9 9 6 10 14 3 27 -11 23 -5 47 10 38 6 -4 8 -3 5 3 -10 16 -16
104 -7 98 5 -3 6 4 3 15 -4 15 16 41 87 110 51 50 97 90 103 90 6 0 8 3 4 6
-3 3 5 16 18 29 14 12 22 25 18 29 -4 4 0 4 10 1 12 -5 20 0 28 19 7 14 21 28
31 32 11 3 17 8 15 11 -7 6 30 43 43 43 6 0 10 5 10 11 0 14 47 59 53 52 3 -2
15 12 27 32 12 19 26 33 31 29 5 -3 13 6 19 20 5 15 14 25 19 24 5 -2 10 2 11
7 0 6 12 16 26 23 13 7 22 17 19 22 -4 6 1 10 9 10 9 0 16 3 16 8 0 9 60 77
60 68 0 -4 11 4 24 16 13 13 22 25 20 27 -5 5 19 27 36 33 26 8 40 5 40 -9z
m2750 -483 c0 -5 -5 -10 -11 -10 -5 0 -7 5 -4 10 3 6 8 10 11 10 2 0 4 -4 4
-10z m0 -320 c0 -5 -5 -10 -11 -10 -5 0 -7 5 -4 10 3 6 8 10 11 10 2 0 4 -4 4
-10z m-3720 -400 c0 -5 -5 -10 -11 -10 -5 0 -7 5 -4 10 3 6 8 10 11 10 2 0 4
-4 4 -10z m3720 -80 c0 -5 -5 -10 -11 -10 -5 0 -7 5 -4 10 3 6 8 10 11 10 2 0
4 -4 4 -10z m-490 -10 c0 -5 -5 -10 -11 -10 -5 0 -7 5 -4 10 3 6 8 10 11 10 2
0 4 -4 4 -10z m220 0 c0 -5 -5 -10 -11 -10 -5 0 -7 5 -4 10 3 6 8 10 11 10 2
0 4 -4 4 -10z"/>
<path d="M1646 2152 c-3 -5 -46 -7 -96 -5 -65 2 -89 -1 -84 -9 5 -7 3 -8 -7
-2 -22 14 -159 14 -159 0 0 -7 -4 -6 -9 3 -6 9 -11 10 -15 2 -4 -6 -12 -8 -18
-5 -7 4 -8 2 -4 -4 4 -8 0 -12 -11 -12 -14 0 -15 -2 -4 -9 11 -7 9 -10 -8 -16
-18 -5 -20 -9 -10 -21 7 -9 8 -14 3 -13 -21 4 -28 -2 -14 -12 11 -8 12 -12 2
-16 -6 -2 -9 -10 -5 -16 11 -18 10 -71 -2 -79 -6 -5 -5 -8 3 -8 7 0 10 -5 7
-10 -4 -6 -1 -18 6 -26 10 -12 9 -13 -7 -8 -16 6 -17 5 -6 -7 15 -16 16 -33 1
-23 -8 5 -9 2 -2 -11 6 -10 8 -26 6 -36 -3 -11 1 -27 8 -36 12 -14 12 -15 1
-9 -11 7 -13 1 -9 -27 3 -22 0 -38 -7 -41 -7 -3 -6 -5 2 -5 7 -1 10 -6 7 -11
-4 -6 -1 -18 6 -26 10 -12 9 -13 -7 -8 -16 6 -17 5 -6 -7 15 -16 16 -33 1 -23
-8 5 -9 2 -2 -11 6 -10 8 -26 6 -36 -3 -11 1 -27 8 -36 12 -14 12 -15 1 -9
-11 7 -13 1 -9 -27 3 -22 0 -38 -7 -41 -7 -3 -6 -5 2 -5 7 -1 10 -6 7 -11 -4
-6 -1 -18 6 -26 10 -12 9 -13 -7 -8 -16 6 -17 5 -6 -7 15 -16 16 -33 1 -23 -8
5 -9 2 -2 -11 6 -10 8 -26 6 -36 -3 -11 0 -19 6 -19 6 0 11 -10 11 -22 0 -12
3 -19 6 -15 4 3 13 0 21 -8 12 -13 33 -18 59 -14 4 0 11 -5 15 -13 5 -7 9 -8
9 -2 0 13 52 12 62 -1 5 -6 8 -5 8 4 0 11 3 11 17 0 13 -11 15 -11 9 -1 -10
16 25 13 36 -3 5 -6 8 -5 8 3 0 6 5 12 11 12 5 0 7 -6 3 -12 -5 -9 -2 -9 9 1
13 10 20 11 31 2 11 -9 16 -9 21 0 6 8 10 7 16 -2 5 -8 9 -9 9 -3 0 13 52 12
62 -1 5 -6 8 -5 8 4 0 11 3 11 17 0 13 -11 15 -11 9 -1 -10 16 25 13 36 -3 5
-6 8 -5 8 3 0 6 5 12 11 12 5 0 7 -6 3 -12 -6 -10 -4 -10 8 0 13 10 17 10 21
0 4 -10 6 -10 6 1 1 11 4 11 18 0 14 -12 16 -12 9 0 -6 9 -5 12 5 9 8 -3 22
-1 32 4 12 6 17 5 17 -4 0 -8 5 -6 11 5 6 9 15 14 21 11 7 -4 8 -2 4 4 -4 7
-3 12 3 12 6 0 14 12 17 28 4 15 12 30 18 34 8 5 7 8 -1 8 -7 0 -13 6 -13 14
0 8 6 17 13 19 10 4 10 6 0 6 -7 1 -13 8 -13 17 0 8 5 12 11 9 6 -4 5 3 -3 14
-11 18 -11 23 2 31 10 6 11 10 3 10 -7 0 -13 7 -13 16 0 9 5 12 13 8 10 -6 10
-4 0 7 -16 16 -17 43 -2 34 6 -4 5 2 -2 13 -11 17 -10 24 2 38 9 11 9 15 2 10
-8 -4 -13 -2 -13 8 0 8 6 17 13 19 10 4 10 6 0 6 -7 1 -13 8 -13 17 0 9 5 12
13 8 10 -6 10 -4 0 7 -7 7 -13 19 -13 27 0 8 5 10 13 6 7 -5 7 -1 -2 10 -12
14 -13 21 -2 38 7 11 8 17 2 13 -6 -3 -11 0 -11 9 0 8 6 17 13 19 10 4 10 6 0
6 -7 1 -13 8 -13 17 0 9 5 12 13 8 10 -6 10 -4 0 7 -7 7 -13 19 -13 27 0 8 5
10 13 6 8 -6 8 -3 -2 9 -8 10 -10 24 -6 34 12 28 14 44 4 37 -13 -7 -11 10 2
23 8 8 8 13 0 17 -15 10 -14 29 2 20 10 -6 10 -4 0 7 -7 7 -13 17 -13 22 0 4
6 5 13 1 10 -6 10 -4 0 7 -16 16 -17 33 -2 23 6 -3 3 6 -7 22 -10 16 -24 33
-31 37 -8 5 -11 13 -7 18 3 5 2 8 -3 7 -4 -1 -18 3 -30 10 -16 9 -24 9 -29 0
-5 -7 -3 -8 6 -3 9 6 11 4 5 -5 -6 -10 -11 -9 -22 5 -7 11 -13 14 -13 7 0 -7
-15 -9 -46 -5 -38 4 -45 3 -39 -8 6 -11 5 -12 -6 -1 -16 14 -33 16 -24 2 3 -6
-1 -7 -9 -4 -9 3 -13 10 -10 15 3 5 3 9 0 9 -3 0 -7 -4 -10 -8z m66 -211 c11
-2 4 -61 -7 -61 -6 0 -6 -3 1 -8 15 -10 25 -40 14 -47 -5 -3 -7 -14 -5 -25 2
-11 -2 -20 -8 -20 -8 0 -7 -4 2 -9 12 -8 13 -12 1 -26 -7 -9 -9 -15 -3 -13 6
2 11 -1 11 -7 0 -5 -4 -9 -10 -7 -5 1 -6 -3 -2 -10 12 -19 12 -68 0 -68 -7 0
-7 -3 1 -8 6 -4 11 -22 11 -39 -1 -18 -4 -30 -9 -28 -4 3 -6 -2 -5 -11 1 -8 9
-20 17 -25 8 -5 9 -9 3 -9 -6 0 -10 -15 -9 -36 3 -31 0 -35 -16 -31 -11 3 -26
-1 -34 -10 -8 -8 -15 -10 -15 -4 0 15 -30 14 -31 -1 0 -10 -2 -10 -6 0 -4 10
-8 10 -21 0 -12 -10 -14 -10 -8 0 4 7 1 12 -8 12 -9 0 -16 -6 -17 -12 0 -10
-2 -10 -6 0 -4 10 -8 10 -21 0 -12 -10 -14 -10 -8 0 4 6 3 12 -1 12 -5 0 -15
-6 -22 -12 -11 -10 -13 -10 -7 0 4 6 3 12 -1 12 -5 0 -15 -6 -22 -12 -8 -8
-11 -8 -8 -2 4 7 -2 14 -12 17 -15 4 -18 1 -14 -12 5 -13 2 -13 -16 3 -12 11
-18 22 -14 25 11 8 10 101 -1 101 -5 0 -2 8 5 17 12 15 12 16 -6 10 -17 -6
-18 -5 -5 5 16 14 21 88 6 88 -5 0 -3 6 3 14 9 11 9 16 0 21 -8 6 -7 10 2 16
12 7 11 9 0 9 -11 0 -12 3 -3 12 7 7 8 17 1 30 -7 13 -6 18 3 18 9 0 9 3 -2
10 -9 6 -10 10 -3 10 12 0 10 30 -2 50 -3 6 0 10 7 10 9 0 9 3 -2 10 -11 7
-11 10 -2 10 7 0 10 5 7 10 -3 6 -4 14 -1 18 3 6 259 8 298 3z"/>
</g>
</svg>
